<svg xmlns="http://www.w3.org/2000/svg" viewBox="0 0 48 48" fill="none" stroke="currentColor" stroke-width="2" stroke-linecap="round" stroke-linejoin="round"><path d="M18.98 7.74 L22.01 7.88 L24.90 8.77 L27.53 10.26 L29.55 12.50 L31.12 15.05 L32.05 17.91 L32.06 20.91 L31.50 23.84 L30.33 26.61 L28.47 29.01 L25.93 30.67 L23.13 31.76 L20.16 32.04 L17.23 31.60 L14.45 30.63 L12.04 28.93 L9.96 26.80 L8.54 24.17 L7.77 21.25 L7.79 18.21 L8.70 15.32 L10.32 12.80 L12.34 10.61 L14.76 8.78 L17.67 7.90 L20.71 7.53"/><path d="M29.50 29.50 L32.63 32.12 L35.30 35.20 L38.03 38.22 L41.00 41.00"/><path d="M15.00 26.00 L14.70 23.50 L15.00 21.00"/><path d="M20.00 26.00 L20.09 22.33 L19.97 18.67 L20.00 15.00"/><path d="M25.00 26.00 L25.12 24.50 L25.00 23.00"/></svg>