<svg xmlns="http://www.w3.org/2000/svg" viewBox="0 0 48 48" fill="none" stroke="currentColor" stroke-width="2" stroke-linecap="round" stroke-linejoin="round"><path d="M12.14 12.56 L15.01 11.15 L18.17 11.40 L20.55 13.59 L21.09 16.80 L19.60 19.68 L16.69 21.26 L13.35 20.72 L11.02 18.21 L10.82 14.81 L12.54 11.92"/><path d="M32.25 10.96 L35.20 12.14 L36.80 14.85 L36.46 17.92 L34.43 20.23 L31.39 21.01 L28.39 19.78 L27.04 16.83 L27.68 13.77 L29.92 11.71 L32.87 11.48"/><path d="M7.73 36.00 L8.15 32.99 L9.22 30.19 L11.01 27.92 L13.39 26.55 L16.00 26.23 L18.54 26.75 L20.74 28.27 L22.57 30.35 L23.84 32.99 L24.16 36.00"/><path d="M23.57 36.00 L24.18 32.99 L25.18 30.16 L27.01 27.92 L29.43 26.66 L32.00 26.35 L34.54 26.76 L36.95 27.97 L38.83 30.16 L39.93 32.96 L40.19 36.00"/></svg>